<svg width="131" height="34" viewBox="0 0 131 34" fill="none" xmlns="http://www.w3.org/2000/svg">
<rect width="131" height="34" rx="17" fill="white"/>
<g filter="url(#filter0_i)">
<path d="M55.8182 22C58.4773 22 60.054 20.3551 60.054 17.6278C60.054 14.9091 58.4773 13.2727 55.8778 13.2727H52.8608V22H55.8182ZM54.4418 20.6321V14.6406H55.7884C57.5611 14.6406 58.4858 15.6293 58.4858 17.6278C58.4858 19.6349 57.5611 20.6321 55.7415 20.6321H54.4418ZM64.343 22.1278C66.2607 22.1278 67.4794 20.777 67.4794 18.7528C67.4794 16.7244 66.2607 15.3693 64.343 15.3693C62.4254 15.3693 61.2067 16.7244 61.2067 18.7528C61.2067 20.777 62.4254 22.1278 64.343 22.1278ZM64.3516 20.892C63.2905 20.892 62.7706 19.946 62.7706 18.7486C62.7706 17.5511 63.2905 16.5923 64.3516 16.5923C65.3956 16.5923 65.9155 17.5511 65.9155 18.7486C65.9155 19.946 65.3956 20.892 64.3516 20.892ZM69.9638 22H71.5746L72.8018 17.5767H72.8913L74.1186 22H75.7251L77.5788 15.4545H76.0021L74.8686 20.0312H74.8047L73.6286 15.4545H72.0732L70.897 20.0568H70.8374L69.6868 15.4545H68.1143L69.9638 22ZM80.1985 18.1648C80.1985 17.2188 80.7695 16.6733 81.5835 16.6733C82.3803 16.6733 82.8576 17.1974 82.8576 18.071V22H84.4002V17.8324C84.4045 16.2642 83.5096 15.3693 82.1587 15.3693C81.1786 15.3693 80.5053 15.8381 80.207 16.5668H80.1303V15.4545H78.6559V22H80.1985V18.1648ZM87.511 13.2727H85.9684V22H87.511V13.2727ZM91.9524 22.1278C93.87 22.1278 95.0888 20.777 95.0888 18.7528C95.0888 16.7244 93.87 15.3693 91.9524 15.3693C90.0348 15.3693 88.8161 16.7244 88.8161 18.7528C88.8161 20.777 90.0348 22.1278 91.9524 22.1278ZM91.9609 20.892C90.8999 20.892 90.38 19.946 90.38 18.7486C90.38 17.5511 90.8999 16.5923 91.9609 16.5923C93.005 16.5923 93.5249 17.5511 93.5249 18.7486C93.5249 19.946 93.005 20.892 91.9609 20.892ZM98.2816 22.1321C99.3086 22.1321 99.9222 21.6506 100.203 21.1009H100.255V22H101.738V17.6193C101.738 15.8892 100.327 15.3693 99.0785 15.3693C97.7021 15.3693 96.6452 15.983 96.3043 17.1761L97.7447 17.3807C97.8981 16.9332 98.3327 16.5497 99.087 16.5497C99.8029 16.5497 100.195 16.9162 100.195 17.5597V17.5852C100.195 18.0284 99.7305 18.0497 98.5756 18.1733C97.3058 18.3097 96.0913 18.6889 96.0913 20.1634C96.0913 21.4503 97.033 22.1321 98.2816 22.1321ZM98.6822 20.9986C98.0387 20.9986 97.5785 20.7045 97.5785 20.1378C97.5785 19.5455 98.0941 19.2983 98.7844 19.2003C99.1893 19.1449 99.9989 19.0426 100.199 18.8807V19.652C100.199 20.3807 99.6112 20.9986 98.6822 20.9986ZM105.718 22.1151C106.843 22.1151 107.35 21.446 107.593 20.9688H107.686V22H109.203V13.2727H107.657V16.5369H107.593C107.358 16.0639 106.877 15.3693 105.722 15.3693C104.209 15.3693 103.02 16.554 103.02 18.7358C103.02 20.892 104.175 22.1151 105.718 22.1151ZM106.148 20.8494C105.13 20.8494 104.593 19.9545 104.593 18.7273C104.593 17.5085 105.121 16.6349 106.148 16.6349C107.141 16.6349 107.686 17.4574 107.686 18.7273C107.686 19.9972 107.132 20.8494 106.148 20.8494Z" fill="#0193FD"/>
</g>
<g clip-path="url(#clip0)" filter="url(#filter1_i)">
<path d="M31 14H28V8H24V14H21L26 19L31 14ZM35.338 20.532C35.128 20.308 33.727 18.809 33.327 18.418C33.0467 18.1493 32.6733 17.9995 32.285 18H30.528L33.592 20.994H30.048C29.9998 20.9931 29.9523 21.0049 29.9101 21.0283C29.868 21.0516 29.8328 21.0857 29.808 21.127L28.992 23H23.008L22.192 21.127C22.167 21.0858 22.1318 21.0519 22.0897 21.0286C22.0476 21.0052 22.0001 20.9933 21.952 20.994H18.408L21.471 18H19.715C19.318 18 18.939 18.159 18.673 18.418C18.273 18.81 16.872 20.309 16.662 20.532C16.173 21.053 15.904 21.468 16.032 21.981L16.593 25.055C16.721 25.569 17.284 25.991 17.845 25.991H34.157C34.718 25.991 35.281 25.569 35.409 25.055L35.97 21.981C36.096 21.468 35.828 21.053 35.338 20.532Z" fill="#0193FD"/>
</g>
<defs>
<filter id="filter0_i" x="52.8608" y="13.2727" width="56.3427" height="12.8594" filterUnits="userSpaceOnUse" color-interpolation-filters="sRGB">
<feFlood flood-opacity="0" result="BackgroundImageFix"/>
<feBlend mode="normal" in="SourceGraphic" in2="BackgroundImageFix" result="shape"/>
<feColorMatrix in="SourceAlpha" type="matrix" values="0 0 0 0 0 0 0 0 0 0 0 0 0 0 0 0 0 0 127 0" result="hardAlpha"/>
<feOffset dy="4"/>
<feGaussianBlur stdDeviation="2"/>
<feComposite in2="hardAlpha" operator="arithmetic" k2="-1" k3="1"/>
<feColorMatrix type="matrix" values="0 0 0 0 0 0 0 0 0 0 0 0 0 0 0 0 0 0 0.25 0"/>
<feBlend mode="normal" in2="shape" result="effect1_innerShadow"/>
</filter>
<filter id="filter1_i" x="16" y="7" width="20" height="24" filterUnits="userSpaceOnUse" color-interpolation-filters="sRGB">
<feFlood flood-opacity="0" result="BackgroundImageFix"/>
<feBlend mode="normal" in="SourceGraphic" in2="BackgroundImageFix" result="shape"/>
<feColorMatrix in="SourceAlpha" type="matrix" values="0 0 0 0 0 0 0 0 0 0 0 0 0 0 0 0 0 0 127 0" result="hardAlpha"/>
<feOffset dy="4"/>
<feGaussianBlur stdDeviation="2"/>
<feComposite in2="hardAlpha" operator="arithmetic" k2="-1" k3="1"/>
<feColorMatrix type="matrix" values="0 0 0 0 0 0 0 0 0 0 0 0 0 0 0 0 0 0 0.25 0"/>
<feBlend mode="normal" in2="shape" result="effect1_innerShadow"/>
</filter>
<clipPath id="clip0">
<rect width="20" height="20" fill="white" transform="translate(16 7)"/>
</clipPath>
</defs>
</svg>
