<svg width="44" height="44" viewBox="0 0 44 44" fill="none" xmlns="http://www.w3.org/2000/svg">
<path d="M22 0C19.1109 0 16.2501 0.569047 13.581 1.67465C10.9118 2.78025 8.48654 4.40076 6.44365 6.44365C2.31785 10.5695 0 16.1652 0 22C0 27.8348 2.31785 33.4306 6.44365 37.5564C8.48654 39.5992 10.9118 41.2197 13.581 42.3254C16.2501 43.431 19.1109 44 22 44C27.8348 44 33.4306 41.6822 37.5564 37.5564C41.6822 33.4306 44 27.8348 44 22C44 19.1109 43.431 16.2501 42.3254 13.581C41.2197 10.9118 39.5992 8.48654 37.5564 6.44365C35.5135 4.40076 33.0882 2.78025 30.419 1.67465C27.7499 0.569047 24.8891 0 22 0V0ZM8.8 11H35.2V15.4H8.8V11ZM8.8 19.8H35.2V24.2H8.8V19.8ZM8.8 28.6H35.2V33H8.8V28.6Z" fill="white"/>
</svg>
