<svg width="20" height="18" viewBox="0 0 20 18" fill="none" xmlns="http://www.w3.org/2000/svg">
<path d="M15 6H12V0H7.99998V6H4.99998L9.99998 11L15 6ZM19.338 12.532C19.128 12.308 17.727 10.809 17.327 10.418C17.0467 10.1493 16.6733 9.99951 16.285 10H14.528L17.592 12.994H14.048C13.9998 12.9931 13.9523 13.0049 13.9101 13.0283C13.868 13.0516 13.8328 13.0857 13.808 13.127L12.992 15H7.00798L6.19198 13.127C6.16705 13.0858 6.13178 13.0519 6.08968 13.0286C6.04758 13.0052 6.00011 12.9933 5.95198 12.994H2.40798L5.47098 10H3.71498C3.31798 10 2.93898 10.159 2.67298 10.418C2.27298 10.81 0.871981 12.309 0.661981 12.532C0.172981 13.053 -0.0960191 13.468 0.0319809 13.981L0.592981 17.055C0.720981 17.569 1.28398 17.991 1.84498 17.991H18.157C18.718 17.991 19.281 17.569 19.409 17.055L19.97 13.981C20.096 13.468 19.828 13.053 19.338 12.532Z" fill="white"/>
</svg>
