<svg width="24" height="24" viewBox="0 0 24 24" fill="none" xmlns="http://www.w3.org/2000/svg">
<path fill-rule="evenodd" clip-rule="evenodd" d="M2.2141 1C1.54353 1 1 1.54351 1 2.21421V21.7858C1 22.4563 1.54353 23 2.2141 23H12.7508V14.4805H9.88369V11.1602H12.7508V8.71173C12.7508 5.87001 14.4864 4.32282 17.0212 4.32282C18.2355 4.32282 19.279 4.41309 19.5831 4.45368V7.42323L17.825 7.4241C16.4464 7.4241 16.1796 8.07903 16.1796 9.04038V11.1602H19.4673L19.0394 14.4805H16.1796V23H21.7857C22.4563 23 23 22.4563 23 21.7858V2.21C23 1.5393 22.4563 1 21.7857 1H2.2141Z" fill="white"/>
</svg>
