<svg width="24" height="24" viewBox="0 0 24 24" fill="none" xmlns="http://www.w3.org/2000/svg">
<path fill-rule="evenodd" clip-rule="evenodd" d="M15.6664 12C15.6664 9.98067 14.0194 8.33363 12 8.33363C9.98067 8.33363 8.33363 9.98067 8.33363 12C8.33363 14.0194 9.98067 15.6664 12 15.6664C14.0194 15.6664 15.6664 14.0194 15.6664 12ZM17.6428 12C17.6428 15.1222 15.1222 17.6428 12 17.6428C8.87789 17.6428 6.35725 15.1222 6.35725 12C6.35725 8.87789 8.87789 6.35725 12 6.35725C15.1222 6.35725 17.6428 8.87789 17.6428 12ZM19.1895 6.12808C19.1895 6.85849 18.6023 7.44569 17.8719 7.44569C17.1415 7.44569 16.5544 6.85849 16.5544 6.12808C16.5544 5.39767 17.1415 4.81047 17.8719 4.81047C18.6023 4.81047 19.1895 5.39767 19.1895 6.12808ZM12 2.97734C10.396 2.97734 6.95881 2.8484 5.51231 3.42127C5.01105 3.62177 4.63864 3.86527 4.25195 4.25195C3.86527 4.63864 3.62177 5.01105 3.42127 5.51231C2.8484 6.95881 2.97734 10.396 2.97734 12C2.97734 13.6041 2.8484 17.0413 3.42127 18.4878C3.62177 18.989 3.86527 19.3614 4.25195 19.7481C4.63864 20.1348 5.01105 20.3782 5.51231 20.5787C6.95881 21.1516 10.396 21.0227 12 21.0227C13.6041 21.0227 17.0413 21.1516 18.4878 20.5787C18.989 20.3782 19.3614 20.1348 19.7481 19.7481C20.1348 19.3614 20.3782 18.989 20.5787 18.4878C21.1516 17.0413 21.0227 13.6041 21.0227 12C21.0227 10.396 21.1516 6.95881 20.5787 5.51231C20.3782 5.01105 20.1348 4.63864 19.7481 4.25195C19.3614 3.86527 18.989 3.62177 18.4878 3.42127C17.0413 2.8484 13.6041 2.97734 12 2.97734ZM22.9991 12C22.9991 13.5181 23.0134 15.0219 22.9275 16.54C22.8416 18.3016 22.4406 19.8627 21.1516 21.1516C19.8627 22.4406 18.3016 22.8416 16.54 22.9275C15.0219 23.0134 13.5181 22.9991 12 22.9991C10.4819 22.9991 8.97813 23.0134 7.46002 22.9275C5.69845 22.8416 4.13738 22.4406 2.84842 21.1516C1.55947 19.8627 1.15848 18.3016 1.07255 16.54C0.986621 15.0219 1.00089 13.5181 1.00089 12C1.00089 10.4819 0.986621 8.97813 1.07255 7.46002C1.15848 5.69845 1.55947 4.13738 2.84842 2.84842C4.13738 1.55947 5.69845 1.15848 7.46002 1.07255C8.97813 0.986621 10.4819 1.00089 12 1.00089C13.5181 1.00089 15.0219 0.986621 16.54 1.07255C18.3016 1.15848 19.8627 1.55947 21.1516 2.84842C22.4406 4.13738 22.8416 5.69845 22.9275 7.46002C23.0134 8.97813 22.9991 10.4819 22.9991 12Z" fill="white"/>
</svg>
