<svg width="24" height="24" viewBox="0 0 24 24" fill="none" xmlns="http://www.w3.org/2000/svg">
<path fill-rule="evenodd" clip-rule="evenodd" d="M3.64443 6.29598C2.18301 6.29598 1 5.10927 1 3.64733C1.00033 2.18671 2.18301 1 3.64443 1C5.10188 1 6.28654 2.18671 6.28654 3.64733C6.28654 5.10961 5.10154 6.29598 3.64443 6.29598ZM5.92318 23H1.3637V8.30475H5.92318V23ZM18.4442 23H23V14.9397C23 10.983 22.1478 7.93943 17.5309 7.93943C15.3126 7.93943 13.8259 9.15738 13.217 10.3128H13.1556V8.30475H8.78264V22.9997H13.3381V15.7302C13.3381 13.8135 13.7028 11.9573 16.0742 11.9573C18.4126 11.9573 18.4442 14.1492 18.4442 15.8535V23Z" fill="white"/>
</svg>
