<svg width="28" height="28" viewBox="0 0 28 28" fill="none" xmlns="http://www.w3.org/2000/svg">
<path fill-rule="evenodd" clip-rule="evenodd" d="M28 14C28 17.713 26.525 21.274 23.8995 23.8995C21.274 26.525 17.713 28 14 28C10.287 28 6.72601 26.525 4.10051 23.8995C1.475 21.274 0 17.713 0 14C0 10.287 1.475 6.72601 4.10051 4.10051C6.72601 1.475 10.287 0 14 0C17.713 0 21.274 1.475 23.8995 4.10051C26.525 6.72601 28 10.287 28 14ZM14.875 7C14.875 6.76794 14.7828 6.54538 14.6187 6.38128C14.4546 6.21719 14.2321 6.125 14 6.125C13.7679 6.125 13.5454 6.21719 13.3813 6.38128C13.2172 6.54538 13.125 6.76794 13.125 7V13.125H7C6.76794 13.125 6.54538 13.2172 6.38128 13.3813C6.21719 13.5454 6.125 13.7679 6.125 14C6.125 14.2321 6.21719 14.4546 6.38128 14.6187C6.54538 14.7828 6.76794 14.875 7 14.875H13.125V21C13.125 21.2321 13.2172 21.4546 13.3813 21.6187C13.5454 21.7828 13.7679 21.875 14 21.875C14.2321 21.875 14.4546 21.7828 14.6187 21.6187C14.7828 21.4546 14.875 21.2321 14.875 21V14.875H21C21.2321 14.875 21.4546 14.7828 21.6187 14.6187C21.7828 14.4546 21.875 14.2321 21.875 14C21.875 13.7679 21.7828 13.5454 21.6187 13.3813C21.4546 13.2172 21.2321 13.125 21 13.125H14.875V7Z" fill="url(#paint0_linear)"/>
<defs>
<linearGradient id="paint0_linear" x1="14" y1="0" x2="14" y2="28" gradientUnits="userSpaceOnUse">
<stop stop-color="#385AF6"/>
<stop offset="1" stop-color="#0193FD"/>
</linearGradient>
</defs>
</svg>
