<svg width="24" height="24" viewBox="0 0 24 24" fill="none" xmlns="http://www.w3.org/2000/svg">
<path fill-rule="evenodd" clip-rule="evenodd" d="M19.5249 4.29377C18.7037 3.39505 17.5301 2.8335 16.2308 2.8335C13.7402 2.8335 11.7189 4.90584 11.7189 7.46162C11.7189 7.82463 11.7577 8.17648 11.8352 8.51541C8.08408 8.32216 4.75879 6.48184 2.53136 3.67818C2.1425 4.36426 1.92046 5.16019 1.92046 6.0078C1.92046 7.61258 2.71698 9.02939 3.92879 9.85938C3.18984 9.83706 2.49259 9.62677 1.88287 9.28256V9.33895C1.88287 11.5822 3.4389 13.4537 5.50538 13.8772C5.12709 13.9859 4.72766 14.0405 4.31589 14.0405C4.02512 14.0405 3.74141 14.0123 3.4665 13.9583C4.04098 15.7962 5.70686 17.1349 7.6823 17.1707C6.13801 18.4125 4.19077 19.1526 2.07671 19.1526C1.71252 19.1526 1.35244 19.1315 1 19.0892C2.99717 20.4003 5.37086 21.1668 7.91902 21.1668C16.222 21.1668 20.7608 14.1157 20.7608 7.99909C20.7608 7.79761 20.7573 7.59672 20.7497 7.39935C21.6314 6.74675 22.3973 5.93203 23 5.00394C22.1917 5.37165 21.3212 5.62071 20.4084 5.73231C21.3406 5.16019 22.056 4.25324 22.3932 3.17243C21.5203 3.70226 20.5558 4.08759 19.5249 4.29377Z" fill="white"/>
</svg>
