<svg width="24" height="24" viewBox="0 0 24 24" fill="none" xmlns="http://www.w3.org/2000/svg">
<path fill-rule="evenodd" clip-rule="evenodd" d="M9.72879 14.5825L15.6707 11.5133L9.72879 8.40734V14.5825ZM12 4C16.6283 4 19.6974 4.22095 19.6974 4.22095C20.1271 4.27006 21.0725 4.27011 21.9073 5.15403C21.9073 5.15403 22.5825 5.81693 22.7789 7.33924C23.0122 9.11936 22.9999 10.8995 22.9999 10.8995V12.5691C22.9999 12.5691 23.0122 14.3492 22.7789 16.1293C22.5825 17.6394 21.9073 18.3146 21.9073 18.3146C21.0725 19.1863 20.1271 19.1862 19.6974 19.2354C19.6974 19.2354 16.6283 19.4686 12 19.4686C6.27907 19.4195 4.52351 19.2476 4.52351 19.2476C4.03245 19.1617 2.92753 19.1863 2.09272 18.3146C2.09272 18.3146 1.41749 17.6394 1.22106 16.1293C0.987807 14.3492 1.00011 12.5691 1.00011 12.5691V10.8995C1.00011 10.8995 0.987807 9.11936 1.22106 7.33924C1.41749 5.81693 2.09272 5.15403 2.09272 5.15403C2.92753 4.27011 3.87281 4.27006 4.3025 4.22095C4.3025 4.22095 7.37169 4 12 4Z" fill="white"/>
</svg>
