<svg width="1535" height="972" viewBox="0 0 1535 972" fill="none" xmlns="http://www.w3.org/2000/svg">
<path fill-rule="evenodd" clip-rule="evenodd" d="M1533 195.866C1505.9 143.519 1411.73 43.0261 1251.88 59.8305C1188.43 66.5015 1142.28 80.9407 1101.41 93.7284C1013.6 121.206 950.155 141.059 791.679 59.8305C668.485 -3.31427 633.675 60.4944 594.982 131.42C560.737 194.192 523.451 262.539 419.159 253.381C197.029 233.876 2.00012 458.934 2.00012 538.955V521.955C2.00012 441.934 197.029 216.876 419.159 236.381C523.451 245.539 560.737 177.192 594.982 114.42C633.675 43.4944 668.485 -20.3143 791.679 42.8305C950.155 124.059 1013.6 104.206 1101.41 76.7284C1142.28 63.9407 1188.43 49.5015 1251.88 42.8305C1411.73 26.0261 1505.9 126.519 1533 178.866V195.866Z" fill="#98D4FF"/>
<g filter="url(#filter0_d)">
<path fill-rule="evenodd" clip-rule="evenodd" d="M1533 184.864C1505.9 132.517 1411.73 32.0245 1251.88 48.8289C1188.43 55.4999 1142.28 69.9391 1101.41 82.7268C1013.6 110.205 950.155 130.058 791.679 48.8289C668.485 -14.3159 633.675 49.4928 594.982 120.418C560.737 183.19 523.451 251.537 419.159 242.379C197.13 222.883 2.17822 447.727 2.00012 527.844V507.954C2.00012 427.933 197.029 202.874 419.159 222.379C523.451 231.537 560.737 163.19 594.982 100.418C633.675 29.4928 668.485 -34.3159 791.679 28.8289C950.155 110.058 1013.6 90.2048 1101.41 62.7268C1142.28 49.9391 1188.43 35.4999 1251.88 28.8289C1411.73 12.0245 1505.9 112.517 1533 164.864V184.864Z" fill="#CBE9FF"/>
</g>
<g filter="url(#filter1_i)">
<path fill-rule="evenodd" clip-rule="evenodd" d="M2.00012 513.955V521.955V527.844V538.955C2.00012 458.934 197.029 233.876 419.159 253.381C523.451 262.539 560.737 194.192 594.982 131.42C633.675 60.4944 668.485 -3.31427 791.679 59.8305C950.155 141.059 1013.6 121.206 1101.41 93.7284C1142.28 80.9407 1188.43 66.5015 1251.88 59.8305C1411.73 43.0261 1505.9 143.519 1533 195.866V972H2V3.00085L2.00012 507.954V513.955ZM1533 3.00085V3H705.166C705.281 3.00009 705.396 3.00038 705.511 3.00085H1533ZM704.652 3.00085H2V3H704.995C704.881 3.00009 704.766 3.00038 704.652 3.00085Z" fill="url(#paint0_linear)"/>
</g>
<defs>
<filter id="filter0_d" x="0.00012207" y="0" width="1535" height="528.844" filterUnits="userSpaceOnUse" color-interpolation-filters="sRGB">
<feFlood flood-opacity="0" result="BackgroundImageFix"/>
<feColorMatrix in="SourceAlpha" type="matrix" values="0 0 0 0 0 0 0 0 0 0 0 0 0 0 0 0 0 0 127 0" result="hardAlpha"/>
<feOffset dy="-1"/>
<feGaussianBlur stdDeviation="1"/>
<feComposite in2="hardAlpha" operator="out"/>
<feColorMatrix type="matrix" values="0 0 0 0 0 0 0 0 0 0 0 0 0 0 0 0 0 0 0.25 0"/>
<feBlend mode="normal" in2="BackgroundImageFix" result="effect1_dropShadow"/>
<feBlend mode="normal" in="SourceGraphic" in2="effect1_dropShadow" result="shape"/>
</filter>
<filter id="filter1_i" x="2" y="3" width="1531" height="975" filterUnits="userSpaceOnUse" color-interpolation-filters="sRGB">
<feFlood flood-opacity="0" result="BackgroundImageFix"/>
<feBlend mode="normal" in="SourceGraphic" in2="BackgroundImageFix" result="shape"/>
<feColorMatrix in="SourceAlpha" type="matrix" values="0 0 0 0 0 0 0 0 0 0 0 0 0 0 0 0 0 0 127 0" result="hardAlpha"/>
<feOffset dy="8"/>
<feGaussianBlur stdDeviation="3"/>
<feComposite in2="hardAlpha" operator="arithmetic" k2="-1" k3="1"/>
<feColorMatrix type="matrix" values="0 0 0 0 0 0 0 0 0 0 0 0 0 0 0 0 0 0 0.25 0"/>
<feBlend mode="normal" in2="shape" result="effect1_innerShadow"/>
</filter>
<linearGradient id="paint0_linear" x1="71" y1="200.881" x2="1234.49" y2="939.031" gradientUnits="userSpaceOnUse">
<stop stop-color="#3959F6"/>
<stop offset="1" stop-color="#0193FD"/>
</linearGradient>
</defs>
</svg>
