<svg width="1444" height="599" viewBox="0 0 1444 599" fill="none" xmlns="http://www.w3.org/2000/svg">
<path fill-rule="evenodd" clip-rule="evenodd" d="M2 343.089C27.4911 395.436 116.06 495.929 266.408 479.125C326.093 472.454 369.495 458.014 407.933 445.227C490.527 417.749 550.202 397.896 699.258 479.125C815.13 542.269 847.871 478.461 884.264 407.535C916.473 344.763 951.543 276.416 1049.64 285.574C1258.56 305.079 1442 80.0208 1442 0V17C1442 97.0208 1258.56 322.079 1049.64 302.574C951.543 293.416 916.473 361.763 884.264 424.535C847.871 495.461 815.13 559.269 699.258 496.125C550.202 414.896 490.527 434.749 407.933 462.227C369.495 475.014 326.093 489.454 266.408 496.125C116.06 512.929 27.4911 412.436 2 360.089V343.089Z" fill="#98D4FF"/>
<g filter="url(#filter0_d)">
<path fill-rule="evenodd" clip-rule="evenodd" d="M2 354.089C27.4911 406.436 116.06 506.929 266.408 490.125C326.093 483.454 369.495 469.014 407.933 456.227C490.527 428.749 550.202 408.896 699.258 490.125C815.13 553.269 847.871 489.461 884.264 418.535C916.473 355.763 951.543 287.416 1049.64 296.574C1258.56 316.079 1442 91.0208 1442 11V31C1442 111.021 1258.56 336.079 1049.64 316.574C951.543 307.416 916.473 375.763 884.264 438.535C847.871 509.461 815.13 573.269 699.258 510.125C550.202 428.896 490.527 448.749 407.933 476.227C369.495 489.014 326.093 503.454 266.408 510.125C116.06 526.929 27.4911 426.436 2 374.089V354.089Z" fill="#CBE9FF"/>
</g>
<path fill-rule="evenodd" clip-rule="evenodd" d="M1049.64 310.574C1258.56 330.079 1442 105.021 1442 25V598.954H2V368.089C27.4911 420.436 116.06 520.929 266.408 504.125C326.093 497.454 369.495 483.014 407.933 470.227C490.527 442.749 550.202 422.896 699.258 504.125C815.13 567.269 847.871 503.461 884.264 432.535C916.473 369.763 951.543 301.416 1049.64 310.574Z" fill="white"/>
<defs>
<filter id="filter0_d" x="0" y="8" width="1444" height="528.954" filterUnits="userSpaceOnUse" color-interpolation-filters="sRGB">
<feFlood flood-opacity="0" result="BackgroundImageFix"/>
<feColorMatrix in="SourceAlpha" type="matrix" values="0 0 0 0 0 0 0 0 0 0 0 0 0 0 0 0 0 0 127 0" result="hardAlpha"/>
<feOffset dy="-1"/>
<feGaussianBlur stdDeviation="1"/>
<feComposite in2="hardAlpha" operator="out"/>
<feColorMatrix type="matrix" values="0 0 0 0 0 0 0 0 0 0 0 0 0 0 0 0 0 0 0.25 0"/>
<feBlend mode="normal" in2="BackgroundImageFix" result="effect1_dropShadow"/>
<feBlend mode="normal" in="SourceGraphic" in2="effect1_dropShadow" result="shape"/>
</filter>
</defs>
</svg>
