<svg width="608" height="426" viewBox="0 0 608 426" fill="none" xmlns="http://www.w3.org/2000/svg">
<path fill-rule="evenodd" clip-rule="evenodd" d="M0.15717 1.22151C0.0559644 1.46078 0 1.72386 0 2V4.66667V128C0 129.105 0.895429 130 2 130H4.66667C5.77124 130 6.66667 129.105 6.66667 128V36.6667C6.66667 20.0981 20.0981 6.66667 36.6667 6.66667H128C129.105 6.66667 130 5.77124 130 4.66667V2C130 0.89543 129.105 0 128 0H4.66667H2C1.93096 0 1.86275 0.00349777 1.79551 0.0103258C1.35652 0.0549077 0.9595 0.241462 0.651089 0.523351C0.439915 0.716365 0.270285 0.954075 0.15717 1.22151Z" fill="url(#paint0_linear)"/>
<path fill-rule="evenodd" clip-rule="evenodd" d="M608 168.687V113C608 96.4315 594.569 83 578 83H478.1L608 168.687ZM446.282 83H311.447L608 284.641V214.324L446.282 83ZM608 195.001V186.657L553.254 150.544L608 195.001ZM136.072 83H281.814L608 389.82V396C608 399.643 607.351 403.135 606.161 406.365L136.072 83ZM175.754 128.503L597.62 418.696C592.36 423.247 585.501 426 578 426H486.086L175.754 128.503ZM447.461 426H464.411L106.613 83H91C74.4315 83 61 96.4315 61 113V172.786L64.1765 169.035L447.461 426ZM61 323.892V187.256L286.165 426H238.42L63.7411 325.469L61 323.892ZM111.197 218.618L306.783 426H420.524L111.197 218.618ZM75.5847 349.592L208.349 426H107.857L75.5847 349.592ZM61 353.613L91.5735 426H91C74.4315 426 61 412.569 61 396V353.613ZM353.1 129.461L608 369.227V302.78L353.1 129.461Z" fill="url(#paint1_linear)"/>
<defs>
<linearGradient id="paint0_linear" x1="16.5" y1="-3.70924e-07" x2="52" y2="65" gradientUnits="userSpaceOnUse">
<stop stop-color="#385AF6"/>
<stop offset="1" stop-color="#0193FD"/>
</linearGradient>
<linearGradient id="paint1_linear" x1="334.5" y1="83" x2="334.5" y2="426" gradientUnits="userSpaceOnUse">
<stop stop-color="#3F51F4"/>
<stop offset="1" stop-color="#0193FD"/>
</linearGradient>
</defs>
</svg>
