<svg width="597" height="381" viewBox="0 0 597 381" fill="none" xmlns="http://www.w3.org/2000/svg">
<path fill-rule="evenodd" clip-rule="evenodd" d="M3.33333 0C1.49238 0 0 1.49238 0 3.33333V126.667C0 128.508 1.49238 130 3.33333 130C5.17428 130 6.66667 128.508 6.66667 126.667V36.6667C6.66667 20.0981 20.0981 6.66667 36.6667 6.66667H126.667C128.508 6.66667 130 5.17428 130 3.33333C130 1.49238 128.508 0 126.667 0H3.33333Z" fill="url(#paint0_linear)"/>
<path fill-rule="evenodd" clip-rule="evenodd" d="M597 123.687V68C597 51.4315 583.569 38 567 38H467.1L597 123.687ZM435.282 38H300.447L597 239.641V169.324L435.282 38ZM597 150.001V141.657L542.254 105.544L597 150.001ZM125.072 38H270.814L597 344.82V351C597 354.643 596.351 358.135 595.161 361.365L125.072 38ZM164.754 83.5025L586.62 373.696C581.36 378.247 574.501 381 567 381H475.086L164.754 83.5025ZM436.461 381H453.411L95.6126 38H80C63.4315 38 50 51.4315 50 68V127.786L53.1765 124.035L436.461 381ZM50 278.892V142.256L275.165 381H227.42L52.7411 280.469L50 278.892ZM100.197 173.618L295.783 381H409.524L100.197 173.618ZM64.5847 304.592L197.349 381H96.8565L64.5847 304.592ZM50 308.613L80.5735 381H80C63.4315 381 50 367.569 50 351V308.613ZM342.1 84.4608L597 324.227V257.78L342.1 84.4608Z" fill="url(#paint1_linear)"/>
<defs>
<linearGradient id="paint0_linear" x1="16.5" y1="-3.70924e-07" x2="52" y2="65" gradientUnits="userSpaceOnUse">
<stop stop-color="#385AF6"/>
<stop offset="1" stop-color="#0193FD"/>
</linearGradient>
<linearGradient id="paint1_linear" x1="323.5" y1="38" x2="323.5" y2="381" gradientUnits="userSpaceOnUse">
<stop stop-color="#3F51F4"/>
<stop offset="1" stop-color="#0193FD"/>
</linearGradient>
</defs>
</svg>
