<svg width="181" height="44" viewBox="0 0 181 44" fill="none" xmlns="http://www.w3.org/2000/svg">
<path d="M46.75 36H55L27.5 8L0 36H8.25L27.5 16.3689L46.75 36ZM13.75 13.6311V8H5.5V22L13.75 13.6311Z" fill="white"/>
<path d="M69.208 14.552H61.144V9.8H83.104V14.552H75.04V35H69.208V14.552ZM97.8809 26.072V35H92.0489V26L82.2929 9.8H88.4849L95.2169 20.996L101.949 9.8H107.673L97.8809 26.072ZM109.867 9.8H115.699V30.248H128.335V35H109.867V9.8ZM148.4 29.6H136.7L134.468 35H128.492L139.724 9.8H145.484L156.752 35H150.632L148.4 29.6ZM146.564 25.172L142.568 15.524L138.572 25.172H146.564ZM173.942 35L167.858 26.252L161.882 35H155.186L164.51 22.184L155.654 9.8H162.278L168.074 17.972L173.762 9.8H180.062L171.278 21.968L180.674 35H173.942Z" fill="white"/>
</svg>
