<svg width="120" height="26" viewBox="0 0 120 26" fill="none" xmlns="http://www.w3.org/2000/svg">
<path d="M8.208 5.552H0.144V0.799998H22.104V5.552H14.04V26H8.208V5.552ZM36.8809 17.072V26H31.0489V17L21.2929 0.799998H27.4849L34.2169 11.996L40.9489 0.799998H46.6729L36.8809 17.072ZM48.8669 0.799998H54.6989V21.248H67.3349V26H48.8669V0.799998ZM87.4004 20.6H75.7004L73.4684 26H67.4924L78.7244 0.799998H84.4844L95.7524 26H89.6324L87.4004 20.6ZM85.5644 16.172L81.5684 6.524L77.5724 16.172H85.5644ZM112.942 26L106.858 17.252L100.882 26H94.1861L103.51 13.184L94.6541 0.799998H101.278L107.074 8.972L112.762 0.799998H119.062L110.278 12.968L119.674 26H112.942Z" fill="white"/>
</svg>
