<svg width="87" height="89" viewBox="0 0 87 89" fill="none" xmlns="http://www.w3.org/2000/svg">
<path d="M33.7895 35H23L47.8158 61H54.8289L64 51.25L58.6053 45.8333L51.0526 53.4167L33.7895 35Z" fill="white"/>
<path d="M78.6923 35H68.3077L60 44.0204L76.6154 61H87L70.3846 44.0204L78.6923 35Z" fill="white"/>
<path fill-rule="evenodd" clip-rule="evenodd" d="M4.24264 44.4619L44.4619 4.24264L73.1095 32.8902H77.3521L46.5833 2.12132L44.4619 0L42.3406 2.12132L2.12132 42.3406L0 44.4619L2.12132 46.5833L42.3406 86.8026L44.4619 88.9239L46.5833 86.8026L73.0896 60.2962L70.9976 58.1455L44.4619 84.6812L4.24264 44.4619ZM81.9834 51.4024L81.858 51.2701H82.1157L81.9834 51.4024Z" fill="white"/>
</svg>
